<?xml version="1.0" encoding="utf-8"?>
<svg viewBox="0 0 400 1024" fill="#000000" xmlns="http://www.w3.org/2000/svg">
  <g id="SVGRepo_iconCarrier" transform="matrix(1, 0, 0, 1, 0, -1.4210854715202004e-14)" data-immersive-translate-walked="78ad5c5b-29a8-4079-9710-68aece24260d">
    <path d="M 397.775 44.525 L 80.125 72.113 C 53.171 72.113 32.05 92.529 32.05 118.585 L 32.05 669.847 C 32.05 695.471 52.899 716.319 78.523 716.319 C 754.779 716.319 400 716.3 400 716.3 C 400.998 131.127 400 72.1 400 72.1 L 400 44.5 L 397.775 44.525" fill="#ffffff" data-immersive-translate-walked="78ad5c5b-29a8-4079-9710-68aece24260d"/>
    <path d="M 400 40.1 C 80.513 39.252 80.125 40.063 80.125 40.063 C 35.255 40.063 0 75.318 0 118.585 L 0 669.847 C 0 713.114 35.255 748.164 78.523 748.369 C 420.883 749.992 401.832 746.747 400 747.589 C 403.603 119.1 399.883 80.514 400 40.1 Z M 400 71.257 C 402.18 715.172 400.001 716.284 400 716.3 C 78.023 716.319 78.523 716.319 78.523 716.319 C 52.899 716.319 32.05 695.471 32.05 669.847 L 32.05 118.585 C 32.05 92.529 53.171 72.113 80.125 72.113 C 396.746 70.614 400 72.1 400 72.1 L 400 71.257 Z" fill="" data-immersive-translate-walked="78ad5c5b-29a8-4079-9710-68aece24260d"/>
    <path d="M273.226917 399.5523m-57.081189 0a57.081189 57.081189 0 1 0 114.162378 0 57.081189 57.081189 0 1 0-114.162378 0Z" fill="#FFFFFF" data-immersive-translate-walked="78ad5c5b-29a8-4079-9710-68aece24260d"/>
    <rect x="307" y="72" width="95.257" height="644" style="fill: rgb(255, 255, 255);"/>
  </g>
</svg>