<?xml version="1.0" encoding="utf-8"?>
<svg viewBox="0 0 1024 1024" fill="#000000" xmlns="http://www.w3.org/2000/svg">
  <g id="SVGRepo_iconCarrier" data-immersive-translate-walked="858fee2e-7c6a-4d75-848c-8f870251eb2b" style="transform-origin: 512px 480.867px;" transform="matrix(1, 0, 0, 1, -0.000011000002, -0.000034000009)">
    <g>
      <path d="M 945.477 72.113 L 80.125 72.113 C 53.171 72.113 32.05 92.529 32.05 118.585 L 32.05 669.847 C 32.05 695.471 52.899 716.319 78.523 716.319 L 503.202 716.319 L 504.003 716.937 C 571.827 778.728 756.337 714.281 754.779 716.319 L 945.477 716.319 C 971.101 716.319 991.95 695.471 991.95 669.847 L 991.95 118.585 C 991.95 92.961 971.101 72.113 945.477 72.113 Z" fill="#ffffff" data-immersive-translate-walked="858fee2e-7c6a-4d75-848c-8f870251eb2b"/>
      <path d="M 945.477 40.063 L 80.125 40.063 C 35.255 40.063 0 75.318 0 118.585 L 0 669.847 C 0 713.114 35.255 748.369 78.523 748.369 L 491.969 748.369 L 667.11 747.691 L 786.829 748.369 L 945.477 748.369 C 988.745 748.369 1024 713.114 1024 669.847 L 1024 118.585 C 1024 75.318 988.745 40.063 945.477 40.063 Z M 991.95 669.847 C 991.95 695.471 971.101 716.319 945.477 716.319 L 754.779 716.319 L 658.205 716.177 L 502.391 716.139 L 501.606 717.117 L 78.523 716.319 C 52.899 716.319 32.05 695.471 32.05 669.847 L 32.05 118.585 C 32.05 92.529 53.171 72.113 80.125 72.113 L 945.477 72.113 C 971.101 72.113 991.95 92.961 991.95 118.585 L 991.95 669.847 Z" fill="" data-immersive-translate-walked="858fee2e-7c6a-4d75-848c-8f870251eb2b" style="transform-box: fill-box; transform-origin: 50% 50%;"/>
      <path d="M 628.053 812.435 C 628.053 843.965 662.187 863.672 689.494 847.907 C 702.166 840.59 709.973 827.068 709.973 812.435 C 709.973 780.903 675.84 761.196 648.534 776.963 C 635.86 784.278 628.053 797.801 628.053 812.435 Z" data-immersive-translate-walked="858fee2e-7c6a-4d75-848c-8f870251eb2b" style="stroke-width: 20px; stroke: rgb(0, 0, 0); fill: rgb(255, 255, 255);"/>
      <path d="M750.773083 399.5523m-57.081189 0a57.081189 57.081189 0 1 0 114.162378 0 57.081189 57.081189 0 1 0-114.162378 0Z" fill="#FFFFFF" data-immersive-translate-walked="858fee2e-7c6a-4d75-848c-8f870251eb2b"/>
      <path d="M 709.973 897.743 C 709.973 916.135 729.885 927.631 745.814 918.435 C 753.206 914.167 757.76 906.278 757.76 897.743 C 757.76 879.348 737.849 867.852 721.92 877.051 C 714.527 881.318 709.973 889.206 709.973 897.743 Z" data-immersive-translate-walked="858fee2e-7c6a-4d75-848c-8f870251eb2b" style="stroke-width: 20px; stroke: rgb(0, 0, 0); fill: rgb(255, 255, 255);"/>
    </g>
  </g>
</svg>